<?xml version="1.0" encoding="utf-8" standalone="no"?>
<!DOCTYPE svg PUBLIC "-//W3C//DTD SVG 1.1//EN"
  "http://www.w3.org/Graphics/SVG/1.1/DTD/svg11.dtd">
<svg xmlns:xlink="http://www.w3.org/1999/xlink" width="460.8pt" height="345.6pt" viewBox="0 0 460.8 345.6" xmlns="http://www.w3.org/2000/svg" version="1.1">
 <metadata>
  <rdf:RDF xmlns:dc="http://purl.org/dc/elements/1.1/" xmlns:cc="http://creativecommons.org/ns#" xmlns:rdf="http://www.w3.org/1999/02/22-rdf-syntax-ns#">
   <cc:Work>
    <dc:type rdf:resource="http://purl.org/dc/dcmitype/StillImage"/>
    <dc:date>2024-03-05T14:00:18.282482</dc:date>
    <dc:format>image/svg+xml</dc:format>
    <dc:creator>
     <cc:Agent>
      <dc:title>Matplotlib v3.8.2, https://matplotlib.org/</dc:title>
     </cc:Agent>
    </dc:creator>
   </cc:Work>
  </rdf:RDF>
 </metadata>
 <defs>
  <style type="text/css">*{stroke-linejoin: round; stroke-linecap: butt}</style>
 </defs>
 <g id="figure_1">
  <g id="patch_1">
   <path d="M 0 345.6 
L 460.8 345.6 
L 460.8 0 
L 0 0 
z
" style="fill: #ffffff"/>
  </g>
  <g id="axes_1">
   <g id="patch_2">
    <path d="M 57.6 307.584 
L 414.72 307.584 
L 414.72 41.472 
L 57.6 41.472 
z
" style="fill: #ffffff"/>
   </g>
   <g id="matplotlib.axis_1">
    <g id="xtick_1">
     <g id="line2d_1">
      <defs>
       <path id="m2a19d6999e" d="M 0 0 
L 0 3.5 
" style="stroke: #000000; stroke-width: 0.8"/>
      </defs>
      <g>
       <use xlink:href="#m2a19d6999e" x="111.894905" y="307.584" style="stroke: #000000; stroke-width: 0.8"/>
      </g>
     </g>
     <g id="text_1">
      <!-- −50 -->
      <g transform="translate(101.342562 322.182437) scale(0.1 -0.1)">
       <defs>
        <path id="DejaVuSans-2212" d="M 678 2272 
L 4684 2272 
L 4684 1741 
L 678 1741 
L 678 2272 
z
" transform="scale(0.015625)"/>
        <path id="DejaVuSans-35" d="M 691 4666 
L 3169 4666 
L 3169 4134 
L 1269 4134 
L 1269 2991 
Q 1406 3038 1543 3061 
Q 1681 3084 1819 3084 
Q 2600 3084 3056 2656 
Q 3513 2228 3513 1497 
Q 3513 744 3044 326 
Q 2575 -91 1722 -91 
Q 1428 -91 1123 -41 
Q 819 9 494 109 
L 494 744 
Q 775 591 1075 516 
Q 1375 441 1709 441 
Q 2250 441 2565 725 
Q 2881 1009 2881 1497 
Q 2881 1984 2565 2268 
Q 2250 2553 1709 2553 
Q 1456 2553 1204 2497 
Q 953 2441 691 2322 
L 691 4666 
z
" transform="scale(0.015625)"/>
        <path id="DejaVuSans-30" d="M 2034 4250 
Q 1547 4250 1301 3770 
Q 1056 3291 1056 2328 
Q 1056 1369 1301 889 
Q 1547 409 2034 409 
Q 2525 409 2770 889 
Q 3016 1369 3016 2328 
Q 3016 3291 2770 3770 
Q 2525 4250 2034 4250 
z
M 2034 4750 
Q 2819 4750 3233 4129 
Q 3647 3509 3647 2328 
Q 3647 1150 3233 529 
Q 2819 -91 2034 -91 
Q 1250 -91 836 529 
Q 422 1150 422 2328 
Q 422 3509 836 4129 
Q 1250 4750 2034 4750 
z
" transform="scale(0.015625)"/>
       </defs>
       <use xlink:href="#DejaVuSans-2212"/>
       <use xlink:href="#DejaVuSans-35" x="83.789062"/>
       <use xlink:href="#DejaVuSans-30" x="147.412109"/>
      </g>
     </g>
    </g>
    <g id="xtick_2">
     <g id="line2d_2">
      <g>
       <use xlink:href="#m2a19d6999e" x="187.556744" y="307.584" style="stroke: #000000; stroke-width: 0.8"/>
      </g>
     </g>
     <g id="text_2">
      <!-- 0 -->
      <g transform="translate(184.375494 322.182437) scale(0.1 -0.1)">
       <use xlink:href="#DejaVuSans-30"/>
      </g>
     </g>
    </g>
    <g id="xtick_3">
     <g id="line2d_3">
      <g>
       <use xlink:href="#m2a19d6999e" x="263.218582" y="307.584" style="stroke: #000000; stroke-width: 0.8"/>
      </g>
     </g>
     <g id="text_3">
      <!-- 50 -->
      <g transform="translate(256.856082 322.182437) scale(0.1 -0.1)">
       <use xlink:href="#DejaVuSans-35"/>
       <use xlink:href="#DejaVuSans-30" x="63.623047"/>
      </g>
     </g>
    </g>
    <g id="xtick_4">
     <g id="line2d_4">
      <g>
       <use xlink:href="#m2a19d6999e" x="338.88042" y="307.584" style="stroke: #000000; stroke-width: 0.8"/>
      </g>
     </g>
     <g id="text_4">
      <!-- 100 -->
      <g transform="translate(329.33667 322.182437) scale(0.1 -0.1)">
       <defs>
        <path id="DejaVuSans-31" d="M 794 531 
L 1825 531 
L 1825 4091 
L 703 3866 
L 703 4441 
L 1819 4666 
L 2450 4666 
L 2450 531 
L 3481 531 
L 3481 0 
L 794 0 
L 794 531 
z
" transform="scale(0.015625)"/>
       </defs>
       <use xlink:href="#DejaVuSans-31"/>
       <use xlink:href="#DejaVuSans-30" x="63.623047"/>
       <use xlink:href="#DejaVuSans-30" x="127.246094"/>
      </g>
     </g>
    </g>
    <g id="xtick_5">
     <g id="line2d_5">
      <g>
       <use xlink:href="#m2a19d6999e" x="414.542259" y="307.584" style="stroke: #000000; stroke-width: 0.8"/>
      </g>
     </g>
     <g id="text_5">
      <!-- 150 -->
      <g transform="translate(404.998509 322.182437) scale(0.1 -0.1)">
       <use xlink:href="#DejaVuSans-31"/>
       <use xlink:href="#DejaVuSans-35" x="63.623047"/>
       <use xlink:href="#DejaVuSans-30" x="127.246094"/>
      </g>
     </g>
    </g>
   </g>
   <g id="matplotlib.axis_2">
    <g id="ytick_1">
     <g id="line2d_6">
      <defs>
       <path id="mdb06ed444a" d="M 0 0 
L -3.5 0 
" style="stroke: #000000; stroke-width: 0.8"/>
      </defs>
      <g>
       <use xlink:href="#mdb06ed444a" x="57.6" y="276.950078" style="stroke: #000000; stroke-width: 0.8"/>
      </g>
     </g>
     <g id="text_6">
      <!-- −40 -->
      <g transform="translate(29.495313 280.749296) scale(0.1 -0.1)">
       <defs>
        <path id="DejaVuSans-34" d="M 2419 4116 
L 825 1625 
L 2419 1625 
L 2419 4116 
z
M 2253 4666 
L 3047 4666 
L 3047 1625 
L 3713 1625 
L 3713 1100 
L 3047 1100 
L 3047 0 
L 2419 0 
L 2419 1100 
L 313 1100 
L 313 1709 
L 2253 4666 
z
" transform="scale(0.015625)"/>
       </defs>
       <use xlink:href="#DejaVuSans-2212"/>
       <use xlink:href="#DejaVuSans-34" x="83.789062"/>
       <use xlink:href="#DejaVuSans-30" x="147.412109"/>
      </g>
     </g>
    </g>
    <g id="ytick_2">
     <g id="line2d_7">
      <g>
       <use xlink:href="#mdb06ed444a" x="57.6" y="235.812405" style="stroke: #000000; stroke-width: 0.8"/>
      </g>
     </g>
     <g id="text_7">
      <!-- −20 -->
      <g transform="translate(29.495313 239.611623) scale(0.1 -0.1)">
       <defs>
        <path id="DejaVuSans-32" d="M 1228 531 
L 3431 531 
L 3431 0 
L 469 0 
L 469 531 
Q 828 903 1448 1529 
Q 2069 2156 2228 2338 
Q 2531 2678 2651 2914 
Q 2772 3150 2772 3378 
Q 2772 3750 2511 3984 
Q 2250 4219 1831 4219 
Q 1534 4219 1204 4116 
Q 875 4013 500 3803 
L 500 4441 
Q 881 4594 1212 4672 
Q 1544 4750 1819 4750 
Q 2544 4750 2975 4387 
Q 3406 4025 3406 3419 
Q 3406 3131 3298 2873 
Q 3191 2616 2906 2266 
Q 2828 2175 2409 1742 
Q 1991 1309 1228 531 
z
" transform="scale(0.015625)"/>
       </defs>
       <use xlink:href="#DejaVuSans-2212"/>
       <use xlink:href="#DejaVuSans-32" x="83.789062"/>
       <use xlink:href="#DejaVuSans-30" x="147.412109"/>
      </g>
     </g>
    </g>
    <g id="ytick_3">
     <g id="line2d_8">
      <g>
       <use xlink:href="#mdb06ed444a" x="57.6" y="194.674732" style="stroke: #000000; stroke-width: 0.8"/>
      </g>
     </g>
     <g id="text_8">
      <!-- 0 -->
      <g transform="translate(44.2375 198.47395) scale(0.1 -0.1)">
       <use xlink:href="#DejaVuSans-30"/>
      </g>
     </g>
    </g>
    <g id="ytick_4">
     <g id="line2d_9">
      <g>
       <use xlink:href="#mdb06ed444a" x="57.6" y="153.537059" style="stroke: #000000; stroke-width: 0.8"/>
      </g>
     </g>
     <g id="text_9">
      <!-- 20 -->
      <g transform="translate(37.875 157.336278) scale(0.1 -0.1)">
       <use xlink:href="#DejaVuSans-32"/>
       <use xlink:href="#DejaVuSans-30" x="63.623047"/>
      </g>
     </g>
    </g>
    <g id="ytick_5">
     <g id="line2d_10">
      <g>
       <use xlink:href="#mdb06ed444a" x="57.6" y="112.399386" style="stroke: #000000; stroke-width: 0.8"/>
      </g>
     </g>
     <g id="text_10">
      <!-- 40 -->
      <g transform="translate(37.875 116.198605) scale(0.1 -0.1)">
       <use xlink:href="#DejaVuSans-34"/>
       <use xlink:href="#DejaVuSans-30" x="63.623047"/>
      </g>
     </g>
    </g>
    <g id="ytick_6">
     <g id="line2d_11">
      <g>
       <use xlink:href="#mdb06ed444a" x="57.6" y="71.261713" style="stroke: #000000; stroke-width: 0.8"/>
      </g>
     </g>
     <g id="text_11">
      <!-- 60 -->
      <g transform="translate(37.875 75.060932) scale(0.1 -0.1)">
       <defs>
        <path id="DejaVuSans-36" d="M 2113 2584 
Q 1688 2584 1439 2293 
Q 1191 2003 1191 1497 
Q 1191 994 1439 701 
Q 1688 409 2113 409 
Q 2538 409 2786 701 
Q 3034 994 3034 1497 
Q 3034 2003 2786 2293 
Q 2538 2584 2113 2584 
z
M 3366 4563 
L 3366 3988 
Q 3128 4100 2886 4159 
Q 2644 4219 2406 4219 
Q 1781 4219 1451 3797 
Q 1122 3375 1075 2522 
Q 1259 2794 1537 2939 
Q 1816 3084 2150 3084 
Q 2853 3084 3261 2657 
Q 3669 2231 3669 1497 
Q 3669 778 3244 343 
Q 2819 -91 2113 -91 
Q 1303 -91 875 529 
Q 447 1150 447 2328 
Q 447 3434 972 4092 
Q 1497 4750 2381 4750 
Q 2619 4750 2861 4703 
Q 3103 4656 3366 4563 
z
" transform="scale(0.015625)"/>
       </defs>
       <use xlink:href="#DejaVuSans-36"/>
       <use xlink:href="#DejaVuSans-30" x="63.623047"/>
      </g>
     </g>
    </g>
   </g>
   <g id="line2d_12">
    <path d="M 171.462911 211.556571 
L 169.813646 205.933714 
L 170.711347 202.116571 
L 172.318858 202.596571 
L 171.995268 197.773714 
L 170.032852 197.910857 
L 170.011976 193.179429 
L 170.826169 200.722286 
L 169.636194 197.865143 
L 170.742662 200.630857 
L 171.316773 197.225143 
L 166.421172 189.453714 
L 158.446249 189.613714 
L 150.523517 193.088 
L 149.751077 195.556571 
L 150.920176 194.893714 
L 119.678099 197.430857 
L 110.690653 195.282286 
L 109.166649 187.876571 
L 110.784598 182.322286 
L 111.358709 188.425143 
L 114.563292 191.739429 
L 131.41084 196.128 
L 119.344071 197.453714 
L 113.060165 189.545143 
L 116.494393 192.699429 
L 120.377471 192.630857 
L 117.454724 189.522286 
L 121.024651 190.939429 
L 119.605031 191.008 
L 131.337772 200.653714 
L 127.99749 198.482286 
L 130.972428 201.636571 
L 129.688507 202.756571 
L 145.638355 200.699429 
L 129.406671 202.048 
L 124.531947 198.573714 
L 125.941128 202.939429 
L 117.746999 202.070857 
L 119.260564 203.465143 
L 115.335733 210.322286 
L 114.970389 207.533714 
L 112.475616 207.350857 
L 123.341971 210.528 
L 130.774099 209.156571 
L 143.435856 202.093714 
L 144.062159 204.493714 
L 154.124759 207.099429 
L 148.237512 208.836571 
L 134.928575 202.093714 
L 127.486009 203.076571 
L 128.456778 200.516571 
L 122.350325 194.390857 
L 116.546585 195.899429 
L 117.840944 192.242286 
L 120.83676 194.848 
L 105.189626 193.522286 
L 109.312786 197.270857 
L 108.749114 198.893714 
L 128.561162 202.985143 
L 149.260473 201.248 
L 152.18322 210.985143 
L 142.078866 205.956571 
L 135.972413 198.710857 
L 134.31271 201.773714 
L 143.435856 206.779429 
L 146.254219 204.928 
L 146.149835 202.756571 
L 141.108097 201.293714 
L 141.786592 198.939429 
L 135.095589 196.996571 
L 135.523563 193.979429 
L 136.964059 196.950857 
L 133.21668 198.985143 
L 142.141497 200.470857 
L 144.229173 202.756571 
L 141.7344 204.585143 
L 149.187404 206.756571 
L 145.095559 207.808 
L 144.928545 209.979429 
L 154.270896 211.876571 
L 152.444179 212.219429 
L 152.089274 208.699429 
L 157.057944 206.368 
L 155.158159 205.545143 
L 157.089259 203.693714 
L 149.34398 203.945143 
L 149.803269 206.688 
L 150.283434 203.945143 
L 154.124759 205.865143 
L 155.220789 202.025143 
L 182.663294 208.836571 
L 179.239505 201.956571 
L 178.665394 205.568 
L 176.36895 206.345143 
L 155.617447 201.728 
L 156.275065 203.305143 
L 152.444179 206.048 
L 160.24165 207.968 
L 160.909707 210.688 
L 158.007837 211.419429 
L 153.978621 206.733714 
L 155.982791 201.728 
L 153.133113 201.636571 
L 159.771923 207.168 
L 161.703024 211.922286 
L 158.561071 213.042286 
L 152.934783 206.825143 
L 151.442095 208.790857 
L 175.304235 217.590857 
L 175.523441 211.122286 
L 159.636224 206.893714 
L 162.673793 203.899429 
L 162.475464 196.265143 
L 154.05169 190.619429 
L 173.216559 190.916571 
L 181.494195 201.956571 
L 174.991084 201.979429 
L 206.368859 206.756571 
L 202.099561 206.276571 
L 200.471173 210.436571 
L 205.982639 213.042286 
L 207.892863 215.899429 
L 204.698718 218.916571 
L 207.318752 218.390857 
L 198.717525 223.465143 
L 195.794778 223.968 
L 189.615256 219.168 
L 183.112145 219.625143 
L 184.730094 213.248 
L 183.581872 215.876571 
L 182.538034 206.802286 
L 185.064122 202.848 
L 177.120514 198.390857 
L 174.928453 179.008 
L 173.195682 186.665143 
L 171.640363 180.699429 
L 169.542248 180.608 
L 169.907592 177.476571 
L 165.325142 189.682286 
L 171.40028 203.648 
L 164.354373 204.745143 
L 158.748962 198.002286 
L 171.880446 192.676571 
L 186.201906 197.865143 
L 187.099606 201.225143 
L 183.748886 201.385143 
L 186.348043 206.185143 
L 183.20609 208.470857 
L 184.792724 200.196571 
L 180.126767 192.059429 
L 170.50258 193.728 
L 166.765639 192.722286 
L 164.135167 188.539429 
L 172.872092 187.762286 
L 177.162267 184.608 
L 177.8512 201.659429 
L 180.575618 207.053714 
L 183.059953 201.956571 
L 184.396065 212.310857 
L 192.600633 213.270857 
L 196.984754 209.979429 
L 196.775986 205.796571 
L 211.681995 217.636571 
L 214.051508 215.510857 
L 209.103715 208.630857 
L 212.276983 210.299429 
L 202.798932 200.836571 
L 203.174714 199.030857 
L 200.75301 198.482286 
L 200.575557 200.356571 
L 198.947169 183.693714 
L 200.074515 179.259429 
L 197.934646 175.922286 
L 196.421081 175.099429 
L 201.107914 188.676571 
L 203.33129 188.722286 
L 202.350082 184.173714 
L 197.558865 181.156571 
L 199.730048 183.693714 
L 195.429435 186.870857 
L 184.959738 182.048 
L 193.33132 178.779429 
L 196.368889 182.893714 
L 203.727948 174.665143 
L 202.767617 172.722286 
L 204.604772 175.282286 
L 215.387621 169.179429 
L 225.742495 172.219429 
L 238.122416 180.013714 
L 245.805065 187.670857 
L 251.347845 197.270857 
L 238.331183 196.402286 
L 248.633866 193.042286 
L 260.387484 183.579429 
L 261.045102 186.825143 
L 274.228778 181.545143 
L 280.846712 184.653714 
L 290.700544 170.162286 
L 287.777797 168.745143 
L 292.088849 161.430857 
L 292.736028 155.488 
L 292.475069 158.436571 
L 290.220378 154.299429 
L 281.347754 163.876571 
L 281.619152 166.162286 
L 280.450053 163.510857 
L 263.153655 167.556571 
L 264.281 168.768 
L 264.594152 166.550857 
L 262.308146 165.110857 
L 250.429268 163.533714 
L 242.757057 166.436571 
L 249.197539 165.842286 
L 249.134908 163.122286 
L 244.969994 159.716571 
L 246.473121 161.019429 
L 236.54622 167.373714 
L 204.093292 169.979429 
L 206.462804 173.225143 
L 203.978469 175.168 
L 205.241514 180.516571 
L 206.201845 179.008 
L 214.260275 185.362286 
L 223.874025 188.996571 
L 240.429298 201.293714 
L 237.924086 202.939429 
L 220.784264 205.408 
L 201.942985 199.350857 
L 194.583926 193.316571 
L 188.143445 182.436571 
L 190.439888 185.088 
L 193.832362 183.328 
L 184.260367 178.756571 
L 179.709232 182.413714 
L 188.801063 192.356571 
L 190.147614 185.362286 
L 181.201921 180.722286 
L 182.997322 182.870857 
L 181.640333 183.328 
L 198.320867 185.430857 
L 201.274929 193.636571 
L 210.805171 188.653714 
L 211.640242 184.768 
L 215.084907 190.870857 
L 234.74038 191.328 
L 306.358116 239.853714 
L 398.487273 295.488 
L 170.137236 201.728 
L 195.408558 228.059429 
L 201.421066 230.619429 
L 210.648595 228.539429 
L 193.738417 189.842286 
L 198.654895 191.625143 
L 181.066222 199.145143 
L 187.945115 202.116571 
L 166.546433 203.945143 
L 169.427426 203.830857 
L 168.122629 204.836571 
L 169.959784 208.836571 
L 175.095467 209.728 
L 178.039091 206.573714 
L 175.554756 197.682286 
L 205.64861 190.482286 
L 203.675756 186.162286 
L 194.970146 179.670857 
L 172.151844 176.722286 
L 188.811501 172.630857 
L 180.074576 177.590857 
L 167.7886 175.762286 
L 156.817861 177.522286 
L 152.371111 179.625143 
L 150.189489 186.185143 
L 128.89519 190.162286 
L 126.170773 188.288 
L 111.797121 195.533714 
L 123.206272 198.710857 
L 122.788737 200.836571 
L 126.546555 202.139429 
L 126.076827 203.876571 
L 124.980797 203.008 
L 145.836684 196.585143 
L 153.675908 187.442286 
L 155.126843 172.196571 
L 150.941052 166.162286 
L 149.093459 172.585143 
L 146.640439 172.105143 
L 155.199912 160.996571 
L 162.005737 127.762286 
L 160.909707 125.522286 
L 172.204036 117.613714 
L 167.652901 101.819429 
L 178.289612 83.510857 
L 178.728024 75.350857 
L 182.81987 62.505143 
L 189.813586 53.568 
L 191.379343 76.470857 
L 187.78854 93.156571 
L 176.473334 112.859429 
L 170.210305 133.019429 
L 175.878346 168.310857 
L 179.155998 170.893714 
L 180.262466 189.613714 
L 153.999498 197.408 
L 150.220804 193.865143 
L 145.847122 194.185143 
L 145.982821 197.453714 
L 131.817937 191.762286 
L 128.602916 198.048 
L 131.891006 194.253714 
L 131.964075 197.179429 
L 129.354479 199.350857 
L 141.79703 197.796571 
L 141.233357 208.790857 
L 137.235457 211.053714 
L 135.356549 217.202286 
L 138.435871 214.390857 
L 133.968244 210.413714 
L 125.106058 224.470857 
L 146.045451 194.596571 
L 140.168643 196.105143 
L 138.101843 198.436571 
L 150.460887 204.173714 
L 149.959844 209.225143 
L 152.057959 212.265143 
L 106.995466 258.116571 
L 102.235564 252.608 
L 80.377593 244.562286 
L 74.239824 244.973714 
L 73.832727 229.773714 
L 80.147948 220.836571 
L 91.849374 211.625143 
L 95.805521 222.528 
L 102.005919 224.242286 
L 110.461008 224.425143 
L 131.28558 210.025143 
L 147.131043 210.688 
L 154.510979 214.573714 
L 152.579878 194.253714 
L 150.492202 190.185143 
L 155.001583 195.350857 
L 155.02246 197.042286 
L 151.995329 193.362286 
L 148.926445 193.865143 
L 151.483848 199.122286 
L 155.669639 204.219429 
L 162.130997 204.836571 
L 163.550617 209.979429 
L 139.834614 228.539429 
L 127.757407 239.419429 
L 128.248011 241.773714 
L 138.602885 227.670857 
L 144.709339 238.093714 
L 154.636239 215.305143 
L 158.101782 220.128 
L 158.279235 224.448 
L 164.730155 209.202286 
L 165.126813 202.528 
L 169.771893 201.042286 
L 161.14979 204.539429 
L 163.884646 209.659429 
L 159.135182 209.705143 
L 157.726 208.013714 
L 159.250004 202.916571 
L 162.976506 199.213714 
L 160.961899 198.345143 
L 163.394042 193.522286 
L 160.930584 192.082286 
L 165.481718 194.390857 
L 170.262497 193.362286 
L 176.661225 200.996571 
L 182.308389 203.808 
L 192.360551 202.893714 
L 193.310443 198.436571 
L 156.045421 201.316571 
L 150.70097 199.465143 
L 150.492202 193.979429 
L 139.531901 202.276571 
L 127.632146 195.922286 
L 135.690577 190.253714 
L 134.813753 187.716571 
L 137.277211 183.373714 
L 137.86176 174.985143 
L 136.389948 186.162286 
L 137.903514 193.750857 
L 135.690577 193.636571 
L 132.245911 214.185143 
L 144.855476 209.042286 
L 117.183326 237.088 
L 115.74283 231.305143 
L 120.690622 243.282286 
L 130.262618 222.436571 
L 134.594547 218.802286 
L 152.746892 215.008 
L 197.360535 212.882286 
L 201.640272 209.453714 
L 200.81564 205.202286 
L 203.206029 202.985143 
L 190.627779 195.259429 
L 193.289567 196.288 
L 201.859478 210.390857 
L 160.700939 209.636571 
L 152.934783 212.448 
L 150.043352 205.362286 
L 152.256288 204.288 
L 166.640378 220.379429 
L 165.899253 218.139429 
L 168.842877 218.322286 
L 166.212405 217.568 
L 174.145575 227.808 
L 181.473319 220.905143 
L 167.235366 209.728 
L 161.692585 210.619429 
L 162.69467 205.316571 
L 156.755231 210.368 
L 153.999498 207.716571 
L 158.488002 228.219429 
L 155.826215 223.259429 
L 157.694685 216.402286 
L 165.492156 217.042286 
L 162.830369 237.316571 
L 160.419103 230.185143 
L 144.667585 231.785143 
L 135.6697 236.630857 
L 133.968244 227.122286 
L 135.408741 224.608 
L 154.145636 206.550857 
L 163.237466 204.653714 
L 170.95143 208.630857 
L 178.592325 207.693714 
L 179.062052 205.819429 
L 210.638157 200.608 
L 209.469058 199.350857 
L 214.072384 202.276571 
L 225.137069 195.762286 
L 220.930401 197.339429 
L 221.12873 195.510857 
L 218.894917 199.556571 
L 223.122461 201.728 
L 236.337452 196.265143 
L 237.840579 192.310857 
L 246.556628 189.065143 
L 242.454344 187.305143 
L 244.41676 184.928 
L 243.633881 181.545143 
L 199.907501 182.185143 
L 201.817724 179.899429 
L 203.404358 185.133714 
L 207.65278 183.076571 
L 205.711241 177.933714 
L 202.830247 177.202286 
L 210.585965 159.328 
L 213.571342 156.676571 
L 204.082853 166.893714 
L 200.450296 166.070857 
L 199.563034 169.522286 
L 196.295821 171.533714 
L 195.899162 176.859429 
L 197.65281 177.590857 
L 197.882455 175.808 
L 194.782255 176.790857 
L 221.285306 177.019429 
L 217.016008 183.465143 
L 177.52761 193.453714 
L 186.859524 192.470857 
L 179.500465 192.768 
L 179.542218 190.893714 
L 186.786455 189.933714 
L 195.84697 181.865143 
L 212.569258 174.550857 
L 210.304129 174.185143 
L 204.061976 179.122286 
L 211.880324 183.670857 
L 204.615211 182.482286 
L 207.151737 181.545143 
L 205.241514 180.448 
L 220.805141 185.499429 
L 207.631903 185.270857 
L 214.16633 181.796571 
L 212.0369 183.328 
L 194.886639 180.539429 
L 198.801032 181.019429 
L 198.571388 175.945143 
L 192.11003 176.105143 
L 190.920054 180.173714 
L 192.350112 180.219429 
L 190.544272 180.562286 
L 196.588095 176.630857 
L 197.350097 171.945143 
L 208.028562 167.282286 
L 224.844794 153.362286 
L 237.381291 136.790857 
L 239.030555 137.110857 
L 238.487759 144.653714 
L 248.633866 145.796571 
L 253.842618 149.385143 
L 251.838449 150.459429 
L 299.166072 172.265143 
L 297.516807 173.590857 
L 298.633714 175.602286 
L 272.746528 184.950857 
L 250.857241 181.339429 
L 238.832226 185.476571 
L 235.83641 184.310857 
L 229.416805 189.270857 
L 225.64855 187.122286 
L 209.646511 191.922286 
L 210.972185 191.099429 
L 193.018169 180.356571 
L 165.293827 177.682286 
L 166.003637 175.716571 
L 171.40028 187.556571 
L 156.546463 188.082286 
L 177.120514 200.288 
L 211.045254 198.230857 
L 212.903286 201.156571 
L 216.953378 199.922286 
L 220.35629 196.356571 
L 222.360459 176.516571 
L 231.003439 149.316571 
L 232.517005 138.413714 
L 244.176677 128.448 
L 248.268523 134.185143 
L 237.934525 147.305143 
L 233.477336 147.899429 
L 236.995071 155.488 
L 233.727857 157.042286 
L 220.585935 152.402286 
L 197.537988 162.916571 
L 189.991038 169.613714 
L 194.677871 181.019429 
L 186.828208 179.488 
L 186.504619 171.510857 
L 186.650756 174.070857 
L 181.525511 176.470857 
L 183.133021 182.070857 
L 191.619426 189.042286 
L 196.055738 180.676571 
L 202.29789 188.013714 
L 204.093292 184.379429 
L 209.876155 187.419429 
L 207.840671 188.905143 
L 204.135045 183.808 
L 210.951308 183.625143 
L 210.283252 185.316571 
L 203.592249 182.916571 
L 196.786424 188.722286 
L 191.473288 189.728 
L 205.126691 192.928 
L 202.590165 197.133714 
L 193.080799 202.688 
L 206.974285 204.265143 
L 188.769747 206.185143 
L 190.857424 208.356571 
L 189.448242 205.019429 
L 203.404358 197.590857 
L 215.659018 201.682286 
L 212.475312 201.156571 
L 222.976324 181.705143 
L 252.496067 183.419429 
L 257.934464 173.750857 
L 253.164124 169.750857 
L 242.464783 168.790857 
L 238.143293 170.916571 
L 246.796711 174.253714 
L 241.734096 175.670857 
L 254.47936 185.865143 
L 255.992925 186.345143 
L 256.274761 182.550857 
L 268.769504 183.785143 
L 266.932349 185.408 
L 256.441776 180.379429 
L 259.2497 176.950857 
L 257.83008 176.173714 
L 256.619228 176.585143 
L 260.690197 178.573714 
L 239.155816 182.048 
L 237.402167 190.985143 
L 231.995086 190.939429 
L 234.29153 195.122286 
L 173.748916 206.802286 
L 175.126783 210.436571 
L 167.005722 217.865143 
L 158.414934 221.453714 
L 160.920145 222.825143 
L 159.907622 224.196571 
L 181.817785 220.973714 
L 160.419103 227.419429 
L 160.189458 230.139429 
L 146.222904 245.682286 
L 141.275111 261.042286 
L 148.842938 272.105143 
L 137.903514 256.310857 
L 147.005782 246.253714 
L 165.095498 239.099429 
L 171.327212 233.248 
L 179.677917 230.002286 
L 181.66121 223.693714 
L 190.398135 221.545143 
L 190.168491 225.133714 
L 183.602748 222.413714 
L 184.155983 225.842286 
L 178.404434 230.436571 
L 183.383542 239.259429 
L 195.231106 244.356571 
L 196.629849 249.225143 
L 200.481612 247.488 
L 198.206044 244.882286 
L 193.863678 244.950857 
L 208.665303 244.036571 
L 213.748795 240.036571 
L 212.861532 235.762286 
L 219.103684 227.670857 
L 198.143414 234.162286 
L 197.819824 231.693714 
L 189.176844 228.790857 
L 186.337604 230.276571 
L 199.698733 231.350857 
L 202.872001 237.042286 
L 204.959677 228.402286 
L 207.151737 229.910857 
L 198.352182 239.853714 
L 212.276983 223.008 
L 295.763159 150.299429 
L 317.224472 143.190857 
L 296.806997 147.830857 
L 290.241255 146.139429 
L 284.656721 149.202286 
L 256.974133 153.545143 
L 242.475221 149.293714 
L 255.230923 148.493714 
L 235.00134 155.282286 
L 198.654895 174.642286 
L 197.120453 178.459429 
L 211.765502 171.350857 
L 217.203899 173.339429 
L 216.817679 175.830857 
L 206.316667 181.819429 
L 210.084923 183.008 
L 196.212314 190.665143 
L 200.126707 193.933714 
L 201.58808 191.442286 
L 196.744671 188.265143 
L 196.368889 185.316571 
L 197.506673 187.236571 
L 223.957532 182.208 
L 223.780079 184.813714 
L 255.51276 174.985143 
L 283.362362 191.122286 
L 271.577429 199.328 
L 272.589952 194.825143 
L 292.610768 197.316571 
L 296.796559 190.550857 
L 294.019949 188.653714 
L 251.974148 194.139429 
L 245.669366 192.470857 
L 232.078593 199.328 
L 207.120422 207.008 
L 203.0077 212.493714 
L 218.571327 209.659429 
L 160.909707 230.093714 
L 162.986945 233.385143 
L 161.995299 235.808 
L 152.172781 245.430857 
L 154.490102 248.288 
L 146.076767 256.379429 
L 144.072597 261.590857 
L 147.141481 263.990857 
L 149.897214 262.962286 
L 144.928545 261.796571 
L 149.041267 255.670857 
L 160.606994 242.185143 
L 171.358527 235.168 
L 188.414842 216.768 
L 191.097507 209.888 
L 216.588034 211.190857 
L 227.141238 193.933714 
L 254.876018 181.408 
L 253.988756 174.368 
L 256.556598 173.796571 
L 253.164124 178.505143 
L 234.698627 181.042286 
L 221.295745 190.710857 
L 210.55465 194.550857 
L 212.433559 191.533714 
L 177.819885 201.202286 
L 178.675832 196.265143 
L 163.153959 207.488 
L 151.21245 235.533714 
L 168.185259 215.076571 
L 186.306289 199.305143 
L 188.978515 197.705143 
L 194.469104 199.693714 
L 198.957608 197.270857 
L 206.347982 187.670857 
L 225.064 177.750857 
L 218.018093 169.088 
L 207.631903 171.488 
L 216.661103 169.110857 
L 214.239399 169.590857 
L 217.830202 165.019429 
L 240.304038 163.488 
L 265.815442 152.562286 
L 208.216452 179.145143 
L 243.414675 162.253714 
L 226.974224 166.276571 
L 204.771786 167.785143 
L 181.734278 182.573714 
L 179.719671 187.122286 
L 161.650832 197.293714 
L 159.719731 201.910857 
L 166.327227 198.505143 
L 161.703024 207.945143 
L 162.444149 211.602286 
L 168.394026 205.819429 
L 172.955599 204.790857 
L 199.71961 204.196571 
L 201.13923 201.499429 
L 196.254067 203.396571 
L 196.013984 200.288 
L 194.333405 201.225143 
L 202.266575 194.619429 
L 232.736211 179.968 
L 234.855202 182.208 
L 240.951217 179.122286 
L 242.057686 181.888 
L 247.986686 178.870857 
L 206.066146 189.179429 
L 254.468921 175.053714 
L 250.825926 181.088 
L 231.160015 188.105143 
L 235.544135 187.853714 
L 241.441821 185.339429 
L 209.615196 190.368 
L 229.813464 188.402286 
L 193.738417 203.762286 
L 176.796924 200.745143 
L 164.594456 203.808 
L 169.354358 204.539429 
L 174.82407 211.008 
L 183.080829 208.836571 
L 176.097552 202.413714 
L 187.903362 198.093714 
L 189.583941 199.739429 
L 229.114092 194.230857 
L 235.199669 188.676571 
L 174.375219 198.619429 
L 180.24159 193.179429 
L 178.393996 192.379429 
L 181.963923 195.785143 
L 201.619395 190.093714 
L 226.828087 175.190857 
L 231.420975 169.545143 
L 256.702735 156.790857 
L 277.433361 154.208 
L 269.24967 157.476571 
L 260.846773 156.768 
L 264.333192 153.499429 
L 203.049453 178.070857 
L 250.93031 149.613714 
L 262.109817 152.562286 
L 207.047354 181.316571 
L 219.343767 168.288 
L 161.755216 176.722286 
L 153.143551 173.316571 
L 152.913907 178.413714 
L 149.396172 179.853714 
L 152.30848 178.139429 
L 162.485902 193.888 
L 179.051614 204.722286 
L 187.026538 202.368 
L 184.740532 199.945143 
L 185.523411 197.179429 
L 191.577672 195.236571 
L 237.162085 196.013714 
L 238.456444 199.465143 
L 233.143308 201.270857 
L 232.141223 197.888 
L 229.458559 197.133714 
L 234.698627 192.516571 
L 217.892832 195.716571 
L 223.915778 197.248 
L 193.894993 198.482286 
L 223.780079 197.819429 
L 223.748764 187.213714 
L 221.71328 180.996571 
L 211.034815 182.139429 
L 204.740471 185.773714 
L 201.828163 184.128 
L 208.613111 182.459429 
L 219.823933 186.550857 
L 230.878179 186.276571 
L 217.934586 191.579429 
L 217.120392 196.699429 
L 214.81351 197.933714 
L 216.859432 203.602286 
L 228.571297 205.773714 
L 209.312482 210.162286 
L 202.652795 206.322286 
L 199.385582 187.899429 
L 194.834447 176.082286 
L 189.542188 175.008 
L 167.412819 181.179429 
L 163.874207 184.493714 
L 162.130997 192.653714 
L 165.377334 190.665143 
L 167.872107 199.488 
L 172.391927 200.493714 
L 167.778162 199.373714 
L 168.717616 208.699429 
L 166.995283 211.693714 
L 134.469286 225.476571 
L 130.815853 231.122286 
L 136.817922 234.459429 
L 150.001598 230.299429 
L 160.554802 230.550857 
L 167.33975 208.996571 
L 172.412803 199.670857 
L 169.573564 197.659429 
L 171.629925 196.173714 
L 171.629925 196.173714 
" clip-path="url(#ped02f65e8e)" style="fill: none; stroke: #1f77b4; stroke-width: 1.5; stroke-linecap: square"/>
   </g>
   <g id="patch_3">
    <path d="M 57.6 307.584 
L 57.6 41.472 
" style="fill: none; stroke: #000000; stroke-width: 0.8; stroke-linejoin: miter; stroke-linecap: square"/>
   </g>
   <g id="patch_4">
    <path d="M 414.72 307.584 
L 414.72 41.472 
" style="fill: none; stroke: #000000; stroke-width: 0.8; stroke-linejoin: miter; stroke-linecap: square"/>
   </g>
   <g id="patch_5">
    <path d="M 57.6 307.584 
L 414.72 307.584 
" style="fill: none; stroke: #000000; stroke-width: 0.8; stroke-linejoin: miter; stroke-linecap: square"/>
   </g>
   <g id="patch_6">
    <path d="M 57.6 41.472 
L 414.72 41.472 
" style="fill: none; stroke: #000000; stroke-width: 0.8; stroke-linejoin: miter; stroke-linecap: square"/>
   </g>
  </g>
 </g>
 <defs>
  <clipPath id="ped02f65e8e">
   <rect x="57.6" y="41.472" width="357.12" height="266.112"/>
  </clipPath>
 </defs>
</svg>
