<?xml version="1.0" encoding="utf-8" standalone="no"?>
<!DOCTYPE svg PUBLIC "-//W3C//DTD SVG 1.1//EN"
  "http://www.w3.org/Graphics/SVG/1.1/DTD/svg11.dtd">
<svg xmlns:xlink="http://www.w3.org/1999/xlink" width="460.8pt" height="345.6pt" viewBox="0 0 460.8 345.6" xmlns="http://www.w3.org/2000/svg" version="1.1">
 <metadata>
  <rdf:RDF xmlns:dc="http://purl.org/dc/elements/1.1/" xmlns:cc="http://creativecommons.org/ns#" xmlns:rdf="http://www.w3.org/1999/02/22-rdf-syntax-ns#">
   <cc:Work>
    <dc:type rdf:resource="http://purl.org/dc/dcmitype/StillImage"/>
    <dc:date>2024-03-07T11:52:21.660111</dc:date>
    <dc:format>image/svg+xml</dc:format>
    <dc:creator>
     <cc:Agent>
      <dc:title>Matplotlib v3.8.2, https://matplotlib.org/</dc:title>
     </cc:Agent>
    </dc:creator>
   </cc:Work>
  </rdf:RDF>
 </metadata>
 <defs>
  <style type="text/css">*{stroke-linejoin: round; stroke-linecap: butt}</style>
 </defs>
 <g id="figure_1">
  <g id="patch_1">
   <path d="M 0 345.6 
L 460.8 345.6 
L 460.8 0 
L 0 0 
z
" style="fill: #ffffff"/>
  </g>
  <g id="axes_1">
   <g id="patch_2">
    <path d="M 57.6 307.584 
L 414.72 307.584 
L 414.72 41.472 
L 57.6 41.472 
z
" style="fill: #ffffff"/>
   </g>
   <g id="matplotlib.axis_1">
    <g id="xtick_1">
     <g id="line2d_1">
      <defs>
       <path id="me8ca621bf0" d="M 0 0 
L 0 3.5 
" style="stroke: #000000; stroke-width: 0.8"/>
      </defs>
      <g>
       <use xlink:href="#me8ca621bf0" x="64.738042" y="307.584" style="stroke: #000000; stroke-width: 0.8"/>
      </g>
     </g>
     <g id="text_1">
      <!-- −150 -->
      <g transform="translate(51.004449 322.182437) scale(0.1 -0.1)">
       <defs>
        <path id="DejaVuSans-2212" d="M 678 2272 
L 4684 2272 
L 4684 1741 
L 678 1741 
L 678 2272 
z
" transform="scale(0.015625)"/>
        <path id="DejaVuSans-31" d="M 794 531 
L 1825 531 
L 1825 4091 
L 703 3866 
L 703 4441 
L 1819 4666 
L 2450 4666 
L 2450 531 
L 3481 531 
L 3481 0 
L 794 0 
L 794 531 
z
" transform="scale(0.015625)"/>
        <path id="DejaVuSans-35" d="M 691 4666 
L 3169 4666 
L 3169 4134 
L 1269 4134 
L 1269 2991 
Q 1406 3038 1543 3061 
Q 1681 3084 1819 3084 
Q 2600 3084 3056 2656 
Q 3513 2228 3513 1497 
Q 3513 744 3044 326 
Q 2575 -91 1722 -91 
Q 1428 -91 1123 -41 
Q 819 9 494 109 
L 494 744 
Q 775 591 1075 516 
Q 1375 441 1709 441 
Q 2250 441 2565 725 
Q 2881 1009 2881 1497 
Q 2881 1984 2565 2268 
Q 2250 2553 1709 2553 
Q 1456 2553 1204 2497 
Q 953 2441 691 2322 
L 691 4666 
z
" transform="scale(0.015625)"/>
        <path id="DejaVuSans-30" d="M 2034 4250 
Q 1547 4250 1301 3770 
Q 1056 3291 1056 2328 
Q 1056 1369 1301 889 
Q 1547 409 2034 409 
Q 2525 409 2770 889 
Q 3016 1369 3016 2328 
Q 3016 3291 2770 3770 
Q 2525 4250 2034 4250 
z
M 2034 4750 
Q 2819 4750 3233 4129 
Q 3647 3509 3647 2328 
Q 3647 1150 3233 529 
Q 2819 -91 2034 -91 
Q 1250 -91 836 529 
Q 422 1150 422 2328 
Q 422 3509 836 4129 
Q 1250 4750 2034 4750 
z
" transform="scale(0.015625)"/>
       </defs>
       <use xlink:href="#DejaVuSans-2212"/>
       <use xlink:href="#DejaVuSans-31" x="83.789062"/>
       <use xlink:href="#DejaVuSans-35" x="147.412109"/>
       <use xlink:href="#DejaVuSans-30" x="211.035156"/>
      </g>
     </g>
    </g>
    <g id="xtick_2">
     <g id="line2d_2">
      <g>
       <use xlink:href="#me8ca621bf0" x="132.8425" y="307.584" style="stroke: #000000; stroke-width: 0.8"/>
      </g>
     </g>
     <g id="text_2">
      <!-- −100 -->
      <g transform="translate(119.108906 322.182437) scale(0.1 -0.1)">
       <use xlink:href="#DejaVuSans-2212"/>
       <use xlink:href="#DejaVuSans-31" x="83.789062"/>
       <use xlink:href="#DejaVuSans-30" x="147.412109"/>
       <use xlink:href="#DejaVuSans-30" x="211.035156"/>
      </g>
     </g>
    </g>
    <g id="xtick_3">
     <g id="line2d_3">
      <g>
       <use xlink:href="#me8ca621bf0" x="200.946957" y="307.584" style="stroke: #000000; stroke-width: 0.8"/>
      </g>
     </g>
     <g id="text_3">
      <!-- −50 -->
      <g transform="translate(190.394613 322.182437) scale(0.1 -0.1)">
       <use xlink:href="#DejaVuSans-2212"/>
       <use xlink:href="#DejaVuSans-35" x="83.789062"/>
       <use xlink:href="#DejaVuSans-30" x="147.412109"/>
      </g>
     </g>
    </g>
    <g id="xtick_4">
     <g id="line2d_4">
      <g>
       <use xlink:href="#me8ca621bf0" x="269.051415" y="307.584" style="stroke: #000000; stroke-width: 0.8"/>
      </g>
     </g>
     <g id="text_4">
      <!-- 0 -->
      <g transform="translate(265.870165 322.182437) scale(0.1 -0.1)">
       <use xlink:href="#DejaVuSans-30"/>
      </g>
     </g>
    </g>
    <g id="xtick_5">
     <g id="line2d_5">
      <g>
       <use xlink:href="#me8ca621bf0" x="337.155872" y="307.584" style="stroke: #000000; stroke-width: 0.8"/>
      </g>
     </g>
     <g id="text_5">
      <!-- 50 -->
      <g transform="translate(330.793372 322.182437) scale(0.1 -0.1)">
       <use xlink:href="#DejaVuSans-35"/>
       <use xlink:href="#DejaVuSans-30" x="63.623047"/>
      </g>
     </g>
    </g>
    <g id="xtick_6">
     <g id="line2d_6">
      <g>
       <use xlink:href="#me8ca621bf0" x="405.260329" y="307.584" style="stroke: #000000; stroke-width: 0.8"/>
      </g>
     </g>
     <g id="text_6">
      <!-- 100 -->
      <g transform="translate(395.716579 322.182437) scale(0.1 -0.1)">
       <use xlink:href="#DejaVuSans-31"/>
       <use xlink:href="#DejaVuSans-30" x="63.623047"/>
       <use xlink:href="#DejaVuSans-30" x="127.246094"/>
      </g>
     </g>
    </g>
   </g>
   <g id="matplotlib.axis_2">
    <g id="ytick_1">
     <g id="line2d_7">
      <defs>
       <path id="m561fced431" d="M 0 0 
L -3.5 0 
" style="stroke: #000000; stroke-width: 0.8"/>
      </defs>
      <g>
       <use xlink:href="#m561fced431" x="57.6" y="292.872104" style="stroke: #000000; stroke-width: 0.8"/>
      </g>
     </g>
     <g id="text_7">
      <!-- −80 -->
      <g transform="translate(29.495313 296.671323) scale(0.1 -0.1)">
       <defs>
        <path id="DejaVuSans-38" d="M 2034 2216 
Q 1584 2216 1326 1975 
Q 1069 1734 1069 1313 
Q 1069 891 1326 650 
Q 1584 409 2034 409 
Q 2484 409 2743 651 
Q 3003 894 3003 1313 
Q 3003 1734 2745 1975 
Q 2488 2216 2034 2216 
z
M 1403 2484 
Q 997 2584 770 2862 
Q 544 3141 544 3541 
Q 544 4100 942 4425 
Q 1341 4750 2034 4750 
Q 2731 4750 3128 4425 
Q 3525 4100 3525 3541 
Q 3525 3141 3298 2862 
Q 3072 2584 2669 2484 
Q 3125 2378 3379 2068 
Q 3634 1759 3634 1313 
Q 3634 634 3220 271 
Q 2806 -91 2034 -91 
Q 1263 -91 848 271 
Q 434 634 434 1313 
Q 434 1759 690 2068 
Q 947 2378 1403 2484 
z
M 1172 3481 
Q 1172 3119 1398 2916 
Q 1625 2713 2034 2713 
Q 2441 2713 2670 2916 
Q 2900 3119 2900 3481 
Q 2900 3844 2670 4047 
Q 2441 4250 2034 4250 
Q 1625 4250 1398 4047 
Q 1172 3844 1172 3481 
z
" transform="scale(0.015625)"/>
       </defs>
       <use xlink:href="#DejaVuSans-2212"/>
       <use xlink:href="#DejaVuSans-38" x="83.789062"/>
       <use xlink:href="#DejaVuSans-30" x="147.412109"/>
      </g>
     </g>
    </g>
    <g id="ytick_2">
     <g id="line2d_8">
      <g>
       <use xlink:href="#m561fced431" x="57.6" y="257.03072" style="stroke: #000000; stroke-width: 0.8"/>
      </g>
     </g>
     <g id="text_8">
      <!-- −60 -->
      <g transform="translate(29.495313 260.829939) scale(0.1 -0.1)">
       <defs>
        <path id="DejaVuSans-36" d="M 2113 2584 
Q 1688 2584 1439 2293 
Q 1191 2003 1191 1497 
Q 1191 994 1439 701 
Q 1688 409 2113 409 
Q 2538 409 2786 701 
Q 3034 994 3034 1497 
Q 3034 2003 2786 2293 
Q 2538 2584 2113 2584 
z
M 3366 4563 
L 3366 3988 
Q 3128 4100 2886 4159 
Q 2644 4219 2406 4219 
Q 1781 4219 1451 3797 
Q 1122 3375 1075 2522 
Q 1259 2794 1537 2939 
Q 1816 3084 2150 3084 
Q 2853 3084 3261 2657 
Q 3669 2231 3669 1497 
Q 3669 778 3244 343 
Q 2819 -91 2113 -91 
Q 1303 -91 875 529 
Q 447 1150 447 2328 
Q 447 3434 972 4092 
Q 1497 4750 2381 4750 
Q 2619 4750 2861 4703 
Q 3103 4656 3366 4563 
z
" transform="scale(0.015625)"/>
       </defs>
       <use xlink:href="#DejaVuSans-2212"/>
       <use xlink:href="#DejaVuSans-36" x="83.789062"/>
       <use xlink:href="#DejaVuSans-30" x="147.412109"/>
      </g>
     </g>
    </g>
    <g id="ytick_3">
     <g id="line2d_9">
      <g>
       <use xlink:href="#m561fced431" x="57.6" y="221.189337" style="stroke: #000000; stroke-width: 0.8"/>
      </g>
     </g>
     <g id="text_9">
      <!-- −40 -->
      <g transform="translate(29.495313 224.988555) scale(0.1 -0.1)">
       <defs>
        <path id="DejaVuSans-34" d="M 2419 4116 
L 825 1625 
L 2419 1625 
L 2419 4116 
z
M 2253 4666 
L 3047 4666 
L 3047 1625 
L 3713 1625 
L 3713 1100 
L 3047 1100 
L 3047 0 
L 2419 0 
L 2419 1100 
L 313 1100 
L 313 1709 
L 2253 4666 
z
" transform="scale(0.015625)"/>
       </defs>
       <use xlink:href="#DejaVuSans-2212"/>
       <use xlink:href="#DejaVuSans-34" x="83.789062"/>
       <use xlink:href="#DejaVuSans-30" x="147.412109"/>
      </g>
     </g>
    </g>
    <g id="ytick_4">
     <g id="line2d_10">
      <g>
       <use xlink:href="#m561fced431" x="57.6" y="185.347953" style="stroke: #000000; stroke-width: 0.8"/>
      </g>
     </g>
     <g id="text_10">
      <!-- −20 -->
      <g transform="translate(29.495313 189.147172) scale(0.1 -0.1)">
       <defs>
        <path id="DejaVuSans-32" d="M 1228 531 
L 3431 531 
L 3431 0 
L 469 0 
L 469 531 
Q 828 903 1448 1529 
Q 2069 2156 2228 2338 
Q 2531 2678 2651 2914 
Q 2772 3150 2772 3378 
Q 2772 3750 2511 3984 
Q 2250 4219 1831 4219 
Q 1534 4219 1204 4116 
Q 875 4013 500 3803 
L 500 4441 
Q 881 4594 1212 4672 
Q 1544 4750 1819 4750 
Q 2544 4750 2975 4387 
Q 3406 4025 3406 3419 
Q 3406 3131 3298 2873 
Q 3191 2616 2906 2266 
Q 2828 2175 2409 1742 
Q 1991 1309 1228 531 
z
" transform="scale(0.015625)"/>
       </defs>
       <use xlink:href="#DejaVuSans-2212"/>
       <use xlink:href="#DejaVuSans-32" x="83.789062"/>
       <use xlink:href="#DejaVuSans-30" x="147.412109"/>
      </g>
     </g>
    </g>
    <g id="ytick_5">
     <g id="line2d_11">
      <g>
       <use xlink:href="#m561fced431" x="57.6" y="149.506569" style="stroke: #000000; stroke-width: 0.8"/>
      </g>
     </g>
     <g id="text_11">
      <!-- 0 -->
      <g transform="translate(44.2375 153.305788) scale(0.1 -0.1)">
       <use xlink:href="#DejaVuSans-30"/>
      </g>
     </g>
    </g>
    <g id="ytick_6">
     <g id="line2d_12">
      <g>
       <use xlink:href="#m561fced431" x="57.6" y="113.665185" style="stroke: #000000; stroke-width: 0.8"/>
      </g>
     </g>
     <g id="text_12">
      <!-- 20 -->
      <g transform="translate(37.875 117.464404) scale(0.1 -0.1)">
       <use xlink:href="#DejaVuSans-32"/>
       <use xlink:href="#DejaVuSans-30" x="63.623047"/>
      </g>
     </g>
    </g>
    <g id="ytick_7">
     <g id="line2d_13">
      <g>
       <use xlink:href="#m561fced431" x="57.6" y="77.823802" style="stroke: #000000; stroke-width: 0.8"/>
      </g>
     </g>
     <g id="text_13">
      <!-- 40 -->
      <g transform="translate(37.875 81.62302) scale(0.1 -0.1)">
       <use xlink:href="#DejaVuSans-34"/>
       <use xlink:href="#DejaVuSans-30" x="63.623047"/>
      </g>
     </g>
    </g>
    <g id="ytick_8">
     <g id="line2d_14">
      <g>
       <use xlink:href="#m561fced431" x="57.6" y="41.982418" style="stroke: #000000; stroke-width: 0.8"/>
      </g>
     </g>
     <g id="text_14">
      <!-- 60 -->
      <g transform="translate(37.875 45.781637) scale(0.1 -0.1)">
       <use xlink:href="#DejaVuSans-36"/>
       <use xlink:href="#DejaVuSans-30" x="63.623047"/>
      </g>
     </g>
    </g>
   </g>
   <g id="line2d_15">
    <path d="M 359.560297 83.758214 
L 361.993821 80.711312 
L 352.475832 89.075356 
L 359.231443 84.69419 
L 355.745585 87.083917 
L 354.702647 103.871747 
L 359.879756 113.769199 
L 364.831365 110.96127 
L 364.840761 100.466387 
L 392.7746 82.42395 
L 390.265911 81.946005 
L 398.487273 80.492254 
L 352.250332 73.880677 
L 347.026243 76.230575 
L 338.78609 86.665715 
L 330.348623 86.805116 
L 327.633225 90.071075 
L 325.434597 87.442376 
L 327.341953 87.203403 
L 326.750015 85.829311 
L 325.387618 85.849225 
L 329.061393 79.576192 
L 338.100193 80.850713 
L 342.610197 79.217733 
L 350.014121 82.782409 
L 347.618182 82.523522 
L 370.825912 86.5064 
L 362.820655 83.200611 
L 364.295802 84.833591 
L 362.426029 85.012821 
L 356.07444 78.002956 
L 352.316103 71.251978 
L 352.316103 65.078517 
L 354.787209 65.118346 
L 357.728108 69.618998 
L 355.971085 70.276173 
L 358.31065 70.67446 
L 355.952294 69.180881 
L 354.96573 71.212149 
L 353.415416 69.917714 
L 354.232855 70.953262 
L 341.285384 60.936324 
L 340.45855 62.230759 
L 352.043623 71.849409 
L 338.241131 57.670364 
L 331.222436 53.568 
L 336.662629 59.621974 
L 336.174045 67.069956 
L 341.510884 69.917714 
L 327.905704 61.374441 
L 333.787501 61.932043 
L 342.713552 72.466755 
L 345.898742 73.562047 
L 328.347309 66.930555 
L 319.590383 71.789666 
L 312.909939 71.192234 
L 310.57977 73.900591 
L 312.853564 74.896311 
L 309.020061 73.860763 
L 301.061782 58.685998 
L 311.444188 64.361599 
L 313.323356 67.508072 
L 321.159489 69.260539 
L 317.917923 72.466755 
L 320.990364 78.460987 
L 311.650896 72.526499 
L 321.685656 85.68991 
L 319.909842 84.853505 
L 319.7783 86.82503 
L 321.67626 91.803627 
L 324.617159 92.401059 
L 323.254762 93.317121 
L 321.779615 91.166367 
L 324.147367 94.452241 
L 321.469552 91.484997 
L 319.393071 94.591642 
L 320.454801 97.837687 
L 318.960862 98.136403 
L 327.886912 108.412228 
L 310.514 94.153525 
L 311.603917 103.115 
L 310.326083 105.664042 
L 317.04411 110.045208 
L 313.20121 110.14478 
L 315.362254 110.742211 
L 313.276377 103.373887 
L 314.582399 103.115 
L 309.076436 98.594434 
L 313.191815 103.134915 
L 318.819924 104.170463 
L 327.435912 111.040927 
L 330.123123 109.129146 
L 332.54725 112.673907 
L 325.85741 104.42935 
L 323.978242 105.425069 
L 327.341953 109.407947 
L 330.508352 109.348204 
L 328.647976 106.122073 
L 327.172828 105.444984 
L 331.9835 113.112024 
L 330.583519 116.019525 
L 328.074829 115.163206 
L 332.453292 118.070707 
L 346.161826 121.814612 
L 348.520182 121.456153 
L 345.504117 117.174559 
L 346.37793 119.08634 
L 348.16314 117.652504 
L 355.482502 125.916976 
L 353.105354 120.360861 
L 347.195369 114.745004 
L 348.924204 100.147756 
L 344.47997 79.297391 
L 352.334894 97.299999 
L 348.520182 92.022686 
L 349.008766 99.132122 
L 353.274479 108.093598 
L 354.542917 127.151668 
L 349.187287 126.335178 
L 326.12989 103.154829 
L 298.853759 90.688421 
L 295.039047 96.702567 
L 291.412252 97.797858 
L 291.966606 101.322705 
L 295.771923 105.56447 
L 297.47257 115.242863 
L 293.733025 116.597042 
L 294.071275 119.026597 
L 297.951758 122.571359 
L 272.301108 105.425069 
L 278.258072 110.762126 
L 279.272823 109.407947 
L 276.942654 105.126354 
L 278.643302 106.122073 
L 278.239281 108.093598 
L 280.860721 107.416508 
L 282.251305 109.427862 
L 282.561368 96.662738 
L 280.484887 95.12933 
L 283.923765 99.948612 
L 287.954582 112.076475 
L 307.798601 119.365142 
L 309.095227 119.046512 
L 308.973081 115.840295 
L 299.013488 114.087829 
L 309.696561 107.635567 
L 307.723434 109.407947 
L 311.838813 112.972623 
L 317.579673 111.518873 
L 317.232027 109.925721 
L 330.26406 97.240256 
L 329.174143 87.900407 
L 309.048248 71.710009 
L 300.507427 67.886446 
L 301.221511 70.495231 
L 303.119471 70.554974 
L 303.32618 68.304648 
L 310.203937 71.291806 
L 337.602213 98.455033 
L 335.16869 93.297206 
L 340.965925 89.533387 
L 348.942995 96.304279 
L 330.094935 81.029943 
L 328.009058 75.931859 
L 320.84003 68.583449 
L 305.092598 58.068652 
L 303.025513 63.206564 
L 306.013391 64.978945 
L 305.026828 63.286222 
L 302.574513 64.461171 
L 304.087243 66.27338 
L 297.528945 62.031615 
L 305.506015 65.198003 
L 307.986518 68.842337 
L 294.306171 62.609133 
L 298.665842 64.202284 
L 325.387618 93.476436 
L 334.905607 101.083733 
L 346.509472 106.221645 
L 347.984619 106.440703 
L 346.349743 102.139195 
L 347.467848 100.147756 
L 354.486542 100.486301 
L 303.993285 78.719874 
L 297.350424 72.566327 
L 295.255151 63.365879 
L 297.932966 62.210845 
L 294.306171 60.119834 
L 309.358311 68.40422 
L 314.789108 68.643193 
L 320.295072 72.48667 
L 295.339714 62.429903 
L 270.365565 59.980433 
L 274.697048 68.742765 
L 274.415173 71.510865 
L 302.536929 93.516265 
L 300.103406 93.157806 
L 307.23485 94.133611 
L 315.972984 100.326986 
L 333.007646 102.876028 
L 346.067867 107.51608 
L 354.373792 115.541579 
L 364.859552 119.76343 
L 363.901177 116.377984 
L 357.624754 110.821869 
L 358.329442 107.535995 
L 355.585856 102.895942 
L 358.498567 103.553117 
L 354.355001 101.203219 
L 355.924106 100.804931 
L 350.756393 94.153525 
L 355.341564 94.890358 
L 354.448959 93.954381 
L 356.459669 96.324194 
L 359.954923 92.182001 
L 355.924106 88.876212 
L 373.823186 100.904503 
L 381.33986 101.004075 
L 379.05667 98.335547 
L 380.268734 98.614348 
L 377.27146 99.152037 
L 373.212456 93.476436 
L 364.013927 89.613044 
L 365.442095 89.075356 
L 392.248433 113.390825 
L 385.098197 110.264266 
L 380.982818 103.334059 
L 295.104818 69.340196 
L 302.8282 77.425438 
L 308.409331 78.998675 
L 319.750113 92.67986 
L 344.658491 104.130634 
L 340.749821 104.867467 
L 363.82601 117.771991 
L 358.432796 118.050792 
L 366.034033 124.622541 
L 356.027461 121.39641 
L 351.921477 113.72937 
L 356.440878 110.801955 
L 355.473106 109.248632 
L 363.168301 114.844576 
L 366.099804 119.5842 
L 372.066164 121.037951 
L 369.651432 118.688053 
L 372.066164 116.756357 
L 370.008474 119.424885 
L 371.652747 120.002402 
L 365.630012 119.365142 
L 369.06889 116.31824 
L 366.127991 109.049488 
L 367.903805 105.863186 
L 376.106376 119.185912 
L 381.039193 132.110351 
L 378.972108 132.867098 
L 383.876738 132.269666 
L 381.753277 129.899854 
L 381.00161 124.283996 
L 362.106571 119.08634 
L 358.451588 114.406459 
L 361.693154 115.700894 
L 363.525343 113.72937 
L 356.149606 116.696614 
L 357.145566 120.101974 
L 357.173753 118.389337 
L 359.203255 120.759149 
L 361.101215 119.444799 
L 356.130815 120.08206 
L 355.454314 126.235606 
L 342.300135 120.360861 
L 341.003508 114.705175 
L 347.063827 112.275619 
L 349.619496 108.213084 
L 339.659903 104.42935 
L 341.088071 103.871747 
L 335.751232 106.938563 
L 326.787599 103.393802 
L 320.661509 105.106439 
L 321.22526 106.759334 
L 318.33134 107.157621 
L 319.580988 108.093598 
L 316.809214 100.048184 
L 318.21859 97.299999 
L 311.058958 88.219037 
L 313.558252 87.422462 
L 312.224043 81.069771 
L 318.782341 88.358438 
L 321.629281 102.119281 
L 320.680301 108.551629 
L 315.935401 107.097878 
L 325.90439 114.764918 
L 329.47481 113.72937 
L 333.129792 118.588481 
L 332.866709 123.447592 
L 345.325596 127.410555 
L 351.367123 132.428981 
L 356.628794 131.33369 
L 360.490486 134.898365 
L 359.193859 135.834342 
L 355.520085 130.955316 
L 357.483816 132.887012 
L 354.665063 134.300934 
L 339.876007 125.458945 
L 339.594132 122.611187 
L 331.955312 122.909903 
L 323.8467 119.165998 
L 328.788913 120.042231 
L 330.000977 117.712248 
L 334.013002 118.787625 
L 332.32175 118.329594 
L 335.403586 116.49747 
L 325.312451 107.137707 
L 327.774162 105.803443 
L 321.33801 100.107928 
L 322.944699 102.617141 
L 320.229301 101.780736 
L 320.680301 104.389521 
L 324.429242 105.56447 
L 321.638677 104.289949 
L 322.700407 105.8831 
L 326.665453 102.47774 
L 326.627869 107.097878 
L 328.610392 107.297022 
L 328.619788 110.363838 
L 327.332558 110.104951 
L 330.555332 112.156133 
L 315.747484 116.099182 
L 314.375691 118.289765 
L 323.95945 124.722113 
L 317.823965 129.541395 
L 320.332655 133.464529 
L 325.594327 137.985096 
L 348.172536 138.602442 
L 362.76428 145.413163 
L 361.730737 141.051912 
L 360.105256 142.764549 
L 351.968457 133.305214 
L 344.432991 129.939683 
L 349.440975 131.791721 
L 347.232952 133.484444 
L 346.697389 143.123008 
L 336.174045 140.394737 
L 336.00492 142.266689 
L 338.645152 141.111655 
L 338.438443 138.303726 
L 340.608883 138.463041 
L 336.239816 137.18852 
L 339.481382 145.592392 
L 343.41824 146.866913 
L 333.092209 158.715975 
L 334.501585 165.327552 
L 330.865394 163.853887 
L 322.39974 165.805498 
L 316.978339 173.771253 
L 321.732635 176.419867 
L 325.932577 175.882178 
L 320.670905 171.202297 
L 322.249407 166.502501 
L 318.030674 161.882363 
L 318.425299 163.256456 
L 320.511176 162.380223 
L 317.307194 154.573782 
L 318.547445 151.20825 
L 317.081693 150.411675 
L 320.360842 149.57527 
L 324.90843 151.566709 
L 323.188991 153.199689 
L 325.688285 154.095837 
L 331.231832 152.442942 
L 328.657371 151.307822 
L 325.06816 142.525577 
L 321.488344 138.960901 
L 321.986323 133.066242 
L 323.386304 133.822988 
L 321.554114 132.807355 
L 323.696367 132.926841 
L 322.709803 131.891293 
L 324.448034 133.464529 
L 313.905899 139.95662 
L 313.58644 142.983608 
L 315.719296 145.054704 
L 327.454704 146.906742 
L 321.657469 142.266689 
L 315.202525 146.189824 
L 318.650799 147.583831 
L 319.787696 144.676331 
L 322.89772 145.333505 
L 327.539266 142.664977 
L 332.265375 147.524088 
L 329.58756 148.519808 
L 335.084128 152.602257 
L 332.763355 150.909534 
L 333.618376 152.542514 
L 333.054626 150.909534 
L 336.812963 150.57099 
L 343.606157 156.246591 
L 342.525635 153.538234 
L 340.787404 152.960716 
L 343.521594 156.784279 
L 341.867926 158.795633 
L 343.728303 162.559452 
L 342.544427 162.997569 
L 345.250429 161.424332 
L 336.84115 155.987704 
L 338.955215 156.525392 
L 337.480067 151.108678 
L 330.245269 145.751708 
L 323.113824 144.994961 
L 307.526122 138.104582 
L 298.947717 130.457457 
L 297.434987 127.788929 
L 300.150385 122.173071 
L 304.641598 121.037951 
L 304.575827 115.521665 
L 308.475102 115.063634 
L 310.062999 111.419301 
L 310.57977 108.571543 
L 308.512685 107.277108 
L 316.668276 112.375191 
L 319.449446 110.124865 
L 319.111195 115.163206 
L 323.50845 114.067914 
L 309.63079 115.780552 
L 304.735556 119.046512 
L 306.887204 123.268362 
L 319.505821 132.010779 
L 334.238502 147.364773 
L 343.549782 148.241006 
L 336.5029 147.922376 
L 336.108274 146.249567 
L 339.161923 146.926657 
L 339.481382 145.35342 
L 339.105548 147.962205 
L 345.457138 150.192616 
L 342.159197 147.285116 
L 331.720416 156.027532 
L 329.737893 158.218115 
L 330.235873 160.866729 
L 321.629281 169.48966 
L 319.374279 169.728632 
L 310.720708 184.206393 
L 317.119277 187.074065 
L 317.241423 185.162284 
L 319.3273 185.421171 
L 315.099171 180.88069 
L 316.273651 174.886459 
L 310.109978 167.259248 
L 319.844071 172.994592 
L 312.318001 172.855191 
L 310.777083 175.543634 
L 309.330123 170.843838 
L 306.248287 172.198016 
L 309.997228 177.156699 
L 315.926005 174.866545 
L 314.751524 173.39288 
L 298.327592 181.856495 
L 301.334261 183.569133 
L 300.25374 172.277674 
L 302.283242 171.540842 
L 305.271119 174.388599 
L 301.099365 178.61045 
L 295.818902 180.303173 
L 294.804151 184.823739 
L 279.479532 202.607289 
L 266.663603 209.975613 
L 262.247557 208.800664 
L 269.905168 206.012649 
L 272.442046 208.043917 
L 259.597929 206.410937 
L 252.870506 202.706861 
L 254.900008 206.072392 
L 257.173802 206.092307 
L 255.971134 203.543265 
L 257.850302 200.834908 
L 255.726842 204.738128 
L 258.799282 207.625715 
L 255.914759 208.681177 
L 260.490534 206.729567 
L 261.016701 204.339841 
L 270.788377 203.403864 
L 262.726745 203.025491 
L 254.30807 205.694019 
L 247.95648 210.592959 
L 248.191376 214.536008 
L 252.36313 222.641164 
L 252.278568 220.570068 
L 256.807364 222.860223 
L 245.579332 231.483153 
L 245.184707 236.182949 
L 239.857264 238.811648 
L 236.315031 243.650845 
L 231.175506 240.603943 
L 228.290982 244.148705 
L 221.272288 212.584398 
L 223.057498 210.413729 
L 226.186313 210.792103 
L 223.358165 207.844773 
L 225.603771 203.603008 
L 228.225211 204.51907 
L 228.826545 207.765116 
L 231.213089 207.78503 
L 230.621151 206.092307 
L 236.672073 200.93448 
L 247.242396 202.806433 
L 247.317563 205.713933 
L 229.615796 216.288474 
L 225.979605 212.50474 
L 219.721974 215.671128 
L 219.092452 214.177549 
L 222.813206 212.305596 
L 226.740668 215.830443 
L 234.050633 216.527447 
L 244.677331 211.409449 
L 239.406264 206.510509 
L 237.58347 207.78503 
L 239.725722 207.665544 
L 242.610246 213.799176 
L 235.431822 212.365339 
L 235.873427 214.755066 
L 227.896357 201.053966 
L 223.405144 198.704068 
L 220.915246 203.364036 
L 219.581036 202.806433 
L 223.113873 202.288659 
L 221.394434 196.095284 
L 209.555672 174.189455 
L 222.653476 183.768277 
L 231.908381 185.480914 
L 230.696318 191.455231 
L 240.016993 188.069785 
L 240.129743 190.359939 
L 237.630449 189.662936 
L 239.124388 197.071089 
L 242.159245 198.903212 
L 239.744514 198.943041 
L 245.118936 189.822251 
L 250.230274 187.830812 
L 254.712091 188.946018 
L 253.180569 188.806617 
L 258.404657 184.445366 
L 257.192593 178.550707 
L 260.405972 177.196528 
L 261.83414 179.148138 
L 258.526803 175.324576 
L 258.395261 170.525208 
L 261.214014 169.62906 
L 261.33616 172.815363 
L 257.840907 166.104213 
L 259.334845 167.000361 
L 258.44224 170.94341 
L 261.289181 172.556475 
L 262.416682 176.539353 
L 253.960424 165.188151 
L 241.059932 156.60505 
L 248.802106 160.050239 
L 242.365954 158.636317 
L 247.50548 157.959228 
L 253.866465 151.686196 
L 251.104087 149.216811 
L 248.867877 140.793025 
L 241.745828 142.58532 
L 239.48143 148.081691 
L 232.857361 150.272274 
L 234.492238 152.403114 
L 229.6064 147.105886 
L 228.958087 149.097325 
L 236.080135 154.892412 
L 229.362108 162.678938 
L 217.185096 148.957924 
L 208.080525 142.08746 
L 211.387861 145.532649 
L 215.409282 146.16991 
L 219.083056 151.606538 
L 208.879171 145.691964 
L 206.812086 151.20825 
L 212.6563 155.649159 
L 209.602651 158.676146 
L 208.897963 165.825412 
L 202.565165 165.506782 
L 200.873914 163.535257 
L 209.706005 169.748547 
L 213.351592 171.062896 
L 213.727426 169.071457 
L 225.528604 176.559268 
L 220.389078 175.523719 
L 221.610538 177.61473 
L 221.4696 173.751339 
L 214.807948 163.555172 
L 204.0685 160.050239 
L 197.679327 161.32476 
L 196.345117 157.541026 
L 206.060419 166.841046 
L 206.934232 171.7599 
L 215.409282 176.738497 
L 210.589215 171.7599 
L 212.590529 173.094164 
L 215.61599 170.584951 
L 220.144786 172.39716 
L 219.806536 169.469745 
L 221.986372 170.186663 
L 221.272288 172.277674 
L 213.229446 162.280651 
L 174.424617 135.216996 
L 158.742956 134.997937 
L 138.504311 124.283996 
L 135.065433 126.155949 
L 133.430556 139.199874 
L 127.426613 150.07313 
L 127.266883 163.555172 
L 123.762234 167.956252 
L 123.367609 171.839557 
L 120.680398 172.89502 
L 116.13281 164.610634 
L 106.342342 163.495428 
L 93.892851 155.987704 
L 100.639066 160.289212 
L 100.657858 162.599281 
L 94.898206 166.3631 
L 90.70766 161.782791 
L 90.406993 163.953459 
L 93.563996 164.550891 
L 90.463368 164.710206 
L 87.644616 174.488171 
L 90.914369 180.362916 
L 103.307485 185.680058 
L 111.322139 191.992919 
L 122.897817 192.928896 
L 146.312256 201.43234 
L 152.062512 195.89614 
L 165.113337 189.36422 
L 174.772263 189.125247 
L 184.04596 180.801033 
L 194.249845 177.276186 
L 196.072638 172.198016 
L 205.224189 164.989008 
L 218.23743 146.349139 
L 231.175506 144.198385 
L 209.828151 147.882547 
L 199.182662 152.34337 
L 199.079308 148.201177 
L 212.947571 153.83695 
L 220.342099 151.506966 
L 221.601142 148.44015 
L 229.653379 144.258128 
L 231.974152 136.889804 
L 237.264011 130.855744 
L 253.124194 125.1204 
L 255.567113 120.360861 
L 269.707856 119.165998 
L 272.075608 117.871563 
L 269.332022 116.597042 
L 278.389614 110.981184 
L 282.993577 110.324009 
L 280.090262 110.523153 
L 282.523785 111.718016 
L 279.629865 113.769199 
L 282.157347 115.36235 
L 290.679376 110.403667 
L 298.130279 116.477555 
L 312.590481 116.377984 
L 308.080476 118.76771 
L 309.940853 119.783344 
L 310.936812 119.185912 
L 302.696659 120.101974 
L 299.013488 113.908599 
L 292.690086 111.160414 
L 277.158759 111.021013 
L 259.05297 90.011332 
L 249.450419 93.396778 
L 244.423643 92.480716 
L 233.51507 111.120585 
L 234.698946 115.043719 
L 227.980919 118.707967 
L 232.293611 132.010779 
L 239.415659 142.266689 
L 250.474566 148.101606 
L 252.269172 146.767341 
L 257.596615 153.259432 
L 256.534884 156.684707 
L 250.211482 152.164141 
L 251.949713 159.432893 
L 249.187336 159.890924 
L 251.132275 159.532465 
L 250.887983 155.350443 
L 272.536004 160.568013 
L 250.568524 157.461368 
L 251.649046 158.596489 
L 249.309482 160.448527 
L 241.069328 141.928145 
L 290.651189 171.959044 
L 290.82971 183.668705 
L 286.507622 185.421171 
L 285.455288 188.069785 
L 280.080866 180.263344 
L 280.456699 172.815363 
L 282.636535 172.815363 
L 280.52247 169.728632 
L 282.411035 166.502501 
L 277.778884 162.858168 
L 277.243321 150.292188 
L 274.678256 144.716159 
L 273.062171 145.492821 
L 279.676844 152.900973 
L 273.99236 152.044655 
L 277.56278 156.983423 
L 266.156227 153.279347 
L 263.093182 154.872498 
L 241.820995 154.036094 
L 228.572857 151.228165 
L 222.287039 153.15986 
L 221.74208 158.915119 
L 219.881703 160.289212 
L 211.463028 158.994776 
L 212.675092 164.053031 
L 211.152965 164.471233 
L 221.460204 172.954763 
L 224.673583 171.58067 
L 215.597199 171.7599 
L 213.314009 173.751339 
L 213.868364 184.803825 
L 225.19975 196.21477 
L 233.280174 200.695507 
L 237.254616 201.472169 
L 239.669347 199.560387 
L 247.364542 201.392511 
L 245.842416 194.322903 
L 243.493455 191.793775 
L 248.191376 191.833604 
L 246.490729 189.68285 
L 248.811502 185.421171 
L 253.575194 183.628876 
L 255.069133 185.77963 
L 252.889298 180.044286 
L 246.594083 172.954763 
L 247.0075 167.060104 
L 250.812816 167.816851 
L 251.0759 164.789864 
L 248.34171 161.464161 
L 248.933648 163.176798 
L 238.203596 162.758596 
L 232.594278 153.65772 
L 234.247946 157.202481 
L 239.960618 161.205274 
L 238.6452 161.802705 
L 240.637119 165.008922 
L 227.877565 168.374454 
L 226.054771 191.176429 
L 185.464732 189.643021 
L 188.020401 198.684154 
L 186.639212 203.085234 
L 190.566674 203.005577 
L 187.325109 205.01693 
L 166.03413 201.810713 
L 166.926735 205.893163 
L 165.338837 207.406657 
L 159.438248 207.625715 
L 162.163042 212.265768 
L 178.427246 221.605616 
L 187.400275 232.200071 
L 192.614968 231.622554 
L 191.384113 233.55425 
L 199.793392 234.868599 
L 210.448277 241.918293 
L 228.760774 260.697562 
L 230.705713 258.228178 
L 222.127309 255.499906 
L 221.986372 250.521309 
L 219.496473 247.135863 
L 198.562536 232.817417 
L 193.507573 231.204352 
L 188.208318 232.996647 
L 188.095568 229.870088 
L 181.058082 224.513117 
L 167.612631 229.531543 
L 160.828833 230.567091 
L 155.595349 228.754882 
L 153.565847 232.259814 
L 148.388737 231.503068 
L 148.266591 233.733479 
L 144.414296 228.037964 
L 145.410255 229.830259 
L 141.360647 229.730687 
L 144.047858 236.979525 
L 141.417022 237.895586 
L 139.349937 243.830074 
L 143.446524 249.127302 
L 145.335089 249.684905 
L 147.02634 246.160058 
L 149.948447 246.916805 
L 151.714866 251.576772 
L 148.041091 246.219801 
L 148.633029 242.774612 
L 146.932382 243.730502 
L 149.159196 246.657918 
L 136.728497 229.491714 
L 130.546033 226.922758 
L 121.441461 215.671128 
L 115.606643 200.337048 
L 118.679083 204.997015 
L 111.322139 196.314342 
L 110.589263 191.156515 
L 97.341125 175.822435 
L 89.119763 153.239518 
L 93.780101 154.892412 
L 97.078042 165.745754 
L 103.52359 170.983239 
L 106.276571 178.729936 
L 113.727474 180.960348 
L 110.175846 182.055639 
L 112.036223 193.008553 
L 106.464488 197.369804 
L 86.141281 201.173453 
L 87.945283 205.634276 
L 77.929315 213.560203 
L 76.660876 217.742225 
L 73.832727 217.72231 
L 74.499832 224.533031 
L 82.608444 238.891306 
L 85.934572 259.741671 
L 93.921039 266.213848 
L 96.401541 266.074447 
L 93.874059 260.299274 
L 85.380218 266.114276 
L 83.90507 265.078728 
L 87.531866 266.014704 
L 85.558739 265.556673 
L 86.009739 267.587941 
L 86.733219 265.078728 
L 82.984278 265.457101 
L 89.53318 261.334823 
L 89.674118 254.324958 
L 92.107641 262.649172 
L 90.115722 263.565234 
L 92.004287 261.91234 
L 94.945185 246.996462 
L 92.624412 245.522797 
L 97.322333 248.410384 
L 97.247167 250.48148 
L 92.145224 244.507164 
L 83.970841 250.16285 
L 81.631277 247.454493 
L 84.90103 254.085985 
L 83.059445 249.226874 
L 76.576313 253.42881 
L 76.783022 255.738879 
L 80.889005 257.590917 
L 81.715839 258.765866 
L 78.389711 257.590917 
L 83.754737 262.748744 
L 82.739986 255.738879 
L 79.742712 253.60804 
L 81.706443 254.305043 
L 82.693007 261.91234 
L 91.675432 278.461197 
L 89.862035 279.357345 
L 92.6526 285.490977 
L 94.870019 284.993117 
L 95.800207 288.358649 
L 94.616331 295.328685 
L 86.225844 294.332965 
L 86.761407 292.879215 
L 84.7413 295.488 
L 90.313035 286.267638 
L 92.145224 290.967434 
L 86.705031 280.65178 
L 87.343949 285.013031 
L 162.736189 226.086354 
L 90.416389 284.495257 
L 90.416389 284.495257 
" clip-path="url(#pf57aab9bcb)" style="fill: none; stroke: #1f77b4; stroke-width: 1.5; stroke-linecap: square"/>
   </g>
   <g id="patch_3">
    <path d="M 57.6 307.584 
L 57.6 41.472 
" style="fill: none; stroke: #000000; stroke-width: 0.8; stroke-linejoin: miter; stroke-linecap: square"/>
   </g>
   <g id="patch_4">
    <path d="M 414.72 307.584 
L 414.72 41.472 
" style="fill: none; stroke: #000000; stroke-width: 0.8; stroke-linejoin: miter; stroke-linecap: square"/>
   </g>
   <g id="patch_5">
    <path d="M 57.6 307.584 
L 414.72 307.584 
" style="fill: none; stroke: #000000; stroke-width: 0.8; stroke-linejoin: miter; stroke-linecap: square"/>
   </g>
   <g id="patch_6">
    <path d="M 57.6 41.472 
L 414.72 41.472 
" style="fill: none; stroke: #000000; stroke-width: 0.8; stroke-linejoin: miter; stroke-linecap: square"/>
   </g>
  </g>
 </g>
 <defs>
  <clipPath id="pf57aab9bcb">
   <rect x="57.6" y="41.472" width="357.12" height="266.112"/>
  </clipPath>
 </defs>
</svg>
